<svg version="1.2" xmlns="http://www.w3.org/2000/svg" viewBox="0 0 315 79" width="315" height="79">
	<title>New Project</title>
	<style>
		tspan { white-space:pre } 
		.s0 { fill: #3dcfd3 } 
		.t1 { font-size: 47px;fill: #ffffff;font-weight: 400;font-family: "Poppins-Regular", "Poppins" } 
	</style>
	<g id="Group_1">
		<g id="Logo">
			<path id="Layer_14" fill-rule="evenodd" class="s0" d="m39.2 78.3c-9.1 0-17.8-3.1-24.8-8.8-7-5.7-11.8-13.7-13.6-22.6-1.8-8.8-0.5-18 3.7-26 4.3-8 11.1-14.3 19.4-17.8 9.6-4.1 20.4-4.1 30-0.2 9.6 3.9 17.3 11.5 21.3 21 4.1 9.6 4.1 20.4 0.2 30-3.9 9.6-11.4 17.3-21 21.4q-1.8 0.7-3.7 1.3-1.8 0.6-3.7 1-2 0.4-3.9 0.6-2 0.1-3.9 0.1zm0-56.2c-6.9 0-13.2 4.1-15.8 10.5-2.7 6.4-1.2 13.8 3.7 18.7 4.9 4.9 12.2 6.3 18.6 3.7 6.4-2.7 10.6-8.9 10.6-15.8 0-2.3-0.5-4.5-1.3-6.6-0.9-2-2.2-3.9-3.7-5.5-1.6-1.6-3.5-2.9-5.6-3.7-2.1-0.9-4.3-1.3-6.5-1.3z"/>
			<text id="CREATIVE" style="transform: matrix(1,0,0,1,97.312,55.609)" >
				<tspan x="0" y="0" class="t1">CREATIVE
</tspan>
			</text>
		</g>
	</g>
</svg>