<svg version="1.2" xmlns="http://www.w3.org/2000/svg" viewBox="0 0 18 28" width="18" height="28">
	<title>phone-2-svg</title>
	<style>
		.s0 { fill: #000000 } 
	</style>
	<g id="SVGRepo_bgCarrier">
	</g>
	<g id="SVGRepo_tracerCarrier">
	</g>
	<g id="SVGRepo_iconCarrier">
		<g id="Layer">
			<path id="Layer" fill-rule="evenodd" class="s0" d="m16.5 2v23.4c0 1.1-0.9 2-2 2h-11.6c-1.1 0-1.9-0.9-1.9-2v-23.4c0-1.1 0.8-2 1.9-2h11.6c1.1 0 2 0.9 2 2zm-10.9-0.3c0 0.3 0.1 0.5 0.3 0.5h5.7c0.1 0 0.2-0.2 0.2-0.5 0-0.3-0.1-0.5-0.2-0.5h-5.7c-0.2 0-0.3 0.2-0.3 0.5zm4.4 22.5c0-0.7-0.6-1.3-1.3-1.3-0.7 0-1.3 0.6-1.3 1.3 0 0.7 0.6 1.3 1.3 1.3 0.7 0 1.3-0.6 1.3-1.3zm5-20.8h-12.6v17.7h12.6z"/>
			<g id="Layer">
			</g>
			<g id="Layer">
			</g>
			<g id="Layer">
			</g>
			<g id="Layer">
			</g>
			<g id="Layer">
			</g>
			<g id="Layer">
			</g>
			<g id="Layer">
			</g>
			<g id="Layer">
			</g>
			<g id="Layer">
			</g>
			<g id="Layer">
			</g>
			<g id="Layer">
			</g>
			<g id="Layer">
			</g>
			<g id="Layer">
			</g>
			<g id="Layer">
			</g>
			<g id="Layer">
			</g>
		</g>
	</g>
</svg>